<svg width="32" height="28" viewBox="0 0 32 28" fill="none" xmlns="http://www.w3.org/2000/svg">
<path d="M16.0001 27.7304L31.7461 8.38313L25.7316 0.269772H6.26853L0.254065 8.38313L16.0001 27.7304Z" fill="#1A7987"/>
<path d="M15.9998 27.7304L13.5669 18.0566L11.134 8.383H15.9998H20.8656L18.4327 18.0566L15.9998 27.7304Z" fill="#215B85"/>
<path d="M11.1343 8.38314L16.0001 27.7304L0.254065 8.38314H11.1343Z" fill="#54B494"/>
<path d="M11.1343 8.38313L8.70141 4.32645L6.26853 0.269772H11.1343H16.0001L13.5672 4.32645L11.1343 8.38313Z" fill="#54B494"/>
<path d="M20.8658 8.38313L18.433 4.32645L16.0001 0.269772H20.8658H25.7316L23.2987 4.32645L20.8658 8.38313Z" fill="#004272"/>
<path d="M0.254065 8.38313L6.26853 0.269772L11.134 8.383L0.254065 8.38313Z" fill="#A1EED4"/>
<path d="M20.8658 8.38314L16.0001 27.7304L31.7461 8.38314H20.8658Z" fill="#004272"/>
<path d="M16.0001 28C15.9263 28 15.8561 27.9659 15.8078 27.9067L0.0618355 8.55951C-0.0176564 8.46176 -0.020704 8.31791 0.0545974 8.2164L6.06906 0.103032C6.11719 0.0380499 6.19071 0.000165939 6.26855 0.000165939H25.7315C25.8093 0.000165939 25.8829 0.0380499 25.931 0.103032L31.9454 8.2164C32.0208 8.31778 32.0176 8.46177 31.9381 8.55937L16.1921 27.9066C16.1441 27.9659 16.0739 28 16.0001 28ZM0.583231 8.37508L16.0001 27.318L31.4169 8.37508L25.6083 0.539304H6.39185L0.583231 8.37508Z" fill="black"/>
<path d="M11.1343 8.65277C11.0474 8.65277 10.9667 8.60572 10.9199 8.52793L6.0543 0.414566C6.00453 0.331518 6.00135 0.22636 6.04605 0.139941C6.09062 0.0536577 6.17583 0 6.26865 0H16.0001C16.0928 0 16.1781 0.0536577 16.2227 0.139941C16.2674 0.226225 16.2641 0.331518 16.2144 0.414566L11.3486 8.52793C11.3019 8.60572 11.221 8.65277 11.1343 8.65277ZM6.73138 0.539408L11.1343 7.88121L15.5373 0.539408H6.73138V0.539408Z" fill="black"/>
<path d="M20.8658 8.65277C20.779 8.65277 20.6982 8.60572 20.6515 8.52793L15.7857 0.414566C15.7359 0.331518 15.7328 0.22636 15.7775 0.139941C15.822 0.0536577 15.9072 0 16.0001 0H25.7317C25.8244 0 25.9097 0.0536577 25.9543 0.139941C25.999 0.226225 25.9957 0.331518 25.9461 0.414566L21.0803 8.52793C21.0336 8.60572 20.9527 8.65277 20.8658 8.65277ZM16.4629 0.539408L20.866 7.88121L25.269 0.539408H16.4629V0.539408Z" fill="black"/>
<path d="M15.9998 28C15.8848 28 15.7842 27.9179 15.7543 27.7999L10.8886 8.45256C10.8683 8.37154 10.8845 8.28525 10.9326 8.21879C10.9806 8.15232 11.0552 8.11336 11.134 8.11336H20.8657C20.9446 8.11336 21.0191 8.15232 21.0671 8.21879C21.1152 8.28525 21.1315 8.37167 21.1112 8.45256L16.2454 27.7999C16.2154 27.9179 16.1149 28 15.9998 28ZM11.4647 8.65263L15.9998 26.6851L20.5349 8.65263H11.4647V8.65263Z" fill="black"/>
<path d="M16.0001 28C15.9263 28 15.8561 27.9659 15.8078 27.9067L0.0618104 8.55948C-0.0032053 8.47966 -0.0183164 8.36695 0.0230804 8.27096C0.0644771 8.17497 0.154763 8.1135 0.254064 8.1135H31.7461C31.8454 8.1135 31.9356 8.17511 31.9769 8.27096C32.0183 8.36682 32.0032 8.47953 31.9382 8.55948L16.1922 27.9067C16.1441 27.9659 16.0738 28 16.0001 28ZM0.809111 8.65277L16.0001 27.3179L31.191 8.65277H0.809111Z" fill="black"/>
</svg>
