<svg width="61" height="56" viewBox="0 0 61 56" fill="none" xmlns="http://www.w3.org/2000/svg">
<g clip-path="url(#clip0_145_318)">
<path d="M27.9199 24.1621C27.9199 26.1934 27.556 28.0892 26.8281 29.8496C26.1003 31.5931 25.11 33.1081 23.8574 34.3945C22.6048 35.6641 21.1322 36.6712 19.4395 37.416C17.7637 38.1439 15.9609 38.5078 14.0312 38.5078C12.1185 38.5078 10.3158 38.1439 8.62305 37.416C6.94727 36.6712 5.47461 35.6641 4.20508 34.3945C2.95247 33.1081 1.96224 31.5931 1.23438 29.8496C0.50651 28.0892 0.142578 26.1934 0.142578 24.1621C0.142578 22.097 0.50651 20.1842 1.23438 18.4238C1.96224 16.6634 2.95247 15.1484 4.20508 13.8789C5.47461 12.5924 6.94727 11.5853 8.62305 10.8574C10.3158 10.1296 12.1185 9.76562 14.0312 9.76562C15.9609 9.76562 17.7637 10.1126 19.4395 10.8066C21.1322 11.4837 22.6048 12.457 23.8574 13.7266C25.11 14.9792 26.1003 16.4941 26.8281 18.2715C27.556 20.0319 27.9199 21.9954 27.9199 24.1621ZM20.9375 24.1621C20.9375 23.0449 20.7513 22.0378 20.3789 21.1406C20.0234 20.2266 19.5326 19.4479 18.9062 18.8047C18.2799 18.1445 17.5436 17.6452 16.6973 17.3066C15.8678 16.9512 14.9792 16.7734 14.0312 16.7734C13.0833 16.7734 12.1862 16.9512 11.3398 17.3066C10.5104 17.6452 9.78255 18.1445 9.15625 18.8047C8.54688 19.4479 8.06445 20.2266 7.70898 21.1406C7.35352 22.0378 7.17578 23.0449 7.17578 24.1621C7.17578 25.2116 7.35352 26.1849 7.70898 27.082C8.06445 27.9792 8.54688 28.7578 9.15625 29.418C9.78255 30.0781 10.5104 30.6029 11.3398 30.9922C12.1862 31.3646 13.0833 31.5508 14.0312 31.5508C14.9792 31.5508 15.8678 31.373 16.6973 31.0176C17.5436 30.6621 18.2799 30.1628 18.9062 29.5195C19.5326 28.8763 20.0234 28.0977 20.3789 27.1836C20.7513 26.2695 20.9375 25.2624 20.9375 24.1621ZM61.0527 24.1621C61.0527 26.2949 60.6887 28.2415 59.9609 30.002C59.233 31.7624 58.2428 33.2773 56.9902 34.5469C55.7376 35.7995 54.2649 36.7728 52.5722 37.4668C50.8964 38.1608 49.0937 38.5078 47.164 38.5078C45.2512 38.5078 43.4485 38.1523 41.7558 37.4414C40.08 36.7305 38.6073 35.7402 37.3378 34.4707C36.0852 33.2012 35.095 31.6947 34.3671 29.9512C33.6392 28.1908 33.2753 26.2611 33.2753 24.1621V-0.00976562H40.2323V12.6855C40.6047 12.2116 41.0533 11.7884 41.578 11.416C42.1197 11.0436 42.6952 10.7389 43.3046 10.502C43.9309 10.265 44.5741 10.0872 45.2343 9.96875C45.8945 9.83333 46.5377 9.76562 47.164 9.76562C49.0937 9.76562 50.8964 10.1296 52.5722 10.8574C54.2649 11.5684 55.7376 12.5671 56.9902 13.8535C58.2428 15.14 59.233 16.6634 59.9609 18.4238C60.6887 20.1673 61.0527 22.0801 61.0527 24.1621ZM54.0702 24.1621C54.0702 23.1126 53.884 22.1393 53.5116 21.2422C53.1562 20.3281 52.6653 19.541 52.039 18.8809C51.4127 18.2207 50.6764 17.7044 49.83 17.332C49.0006 16.9596 48.1119 16.7734 47.164 16.7734C46.2161 16.7734 45.3189 16.985 44.4726 17.4082C43.6432 17.8145 42.9153 18.3646 42.289 19.0586C41.6627 19.7357 41.1718 20.5228 40.8163 21.4199C40.4609 22.3001 40.2831 23.2142 40.2831 24.1621C40.2831 25.2116 40.4609 26.1849 40.8163 27.082C41.1718 27.9792 41.6627 28.7578 42.289 29.418C42.9153 30.0781 43.6432 30.6029 44.4726 30.9922C45.3189 31.3646 46.2161 31.5508 47.164 31.5508C48.1119 31.5508 49.0006 31.3646 49.83 30.9922C50.6764 30.6029 51.4127 30.0781 52.039 29.418C52.6653 28.7578 53.1562 27.9792 53.5116 27.082C53.884 26.1849 54.0702 25.2116 54.0702 24.1621Z" fill="white"/>
<path d="M16 44.1667C16 47.3051 17.4961 50.3149 20.1591 52.5341C22.8221 54.7533 26.4339 56 30.2 56C33.9661 56 37.5779 54.7533 40.2409 52.5341C42.9039 50.3149 44.4 47.3051 44.4 44.1667L40.6055 44.1667C40.6055 46.4664 39.5092 48.672 37.5578 50.2981C35.6064 51.9243 32.9597 52.8379 30.2 52.8379C27.4403 52.8379 24.7936 51.9243 22.8422 50.2982C20.8908 48.672 19.7945 46.4664 19.7945 44.1667L16 44.1667Z" fill="white"/>
<ellipse cx="17.8933" cy="44.1667" rx="1.89333" ry="1.42" fill="white"/>
<ellipse cx="42.5066" cy="44.1667" rx="1.89333" ry="1.42" fill="white"/>
</g>
<defs>
<clipPath id="clip0_145_318">
<rect width="61" height="56" fill="white"/>
</clipPath>
</defs>
</svg>
