<svg width="135" height="69" viewBox="0 0 135 69" fill="none" xmlns="http://www.w3.org/2000/svg">
<path d="M18.7129 36.4512C18.7129 38.4655 18.332 40.3613 17.5703 42.1387C16.8086 43.8991 15.7676 45.4395 14.4473 46.7598C13.1439 48.0632 11.6035 49.0957 9.82617 49.8574C8.06576 50.6191 6.17839 51 4.16406 51C2.94531 51 1.72656 50.8477 0.507812 50.543V42.7227C1.04948 43.0443 1.63346 43.2897 2.25977 43.459C2.88607 43.6283 3.52083 43.7129 4.16406 43.7129C5.16276 43.7129 6.10221 43.5267 6.98242 43.1543C7.87956 42.765 8.6582 42.2402 9.31836 41.5801C9.97852 40.9199 10.4948 40.1497 10.8672 39.2695C11.2565 38.3893 11.4512 37.4499 11.4512 36.4512V14.5898H18.7129V36.4512ZM52.2773 37.1621C52.2773 39.1934 51.9133 41.0892 51.1855 42.8496C50.4576 44.5931 49.4674 46.1081 48.2148 47.3945C46.9622 48.6641 45.4895 49.6712 43.7968 50.416C42.121 51.1439 40.3183 51.5078 38.3886 51.5078C36.4758 51.5078 34.6731 51.1439 32.9804 50.416C31.3046 49.6712 29.832 48.6641 28.5624 47.3945C27.3098 46.1081 26.3196 44.5931 25.5917 42.8496C24.8639 41.0892 24.4999 39.1934 24.4999 37.1621C24.4999 35.097 24.8639 33.1842 25.5917 31.4238C26.3196 29.6634 27.3098 28.1484 28.5624 26.8789C29.832 25.5924 31.3046 24.5853 32.9804 23.8574C34.6731 23.1296 36.4758 22.7656 38.3886 22.7656C40.3183 22.7656 42.121 23.1126 43.7968 23.8066C45.4895 24.4837 46.9622 25.457 48.2148 26.7266C49.4674 27.9792 50.4576 29.4941 51.1855 31.2715C51.9133 33.0319 52.2773 34.9954 52.2773 37.1621ZM45.2948 37.1621C45.2948 36.0449 45.1086 35.0378 44.7362 34.1406C44.3808 33.2266 43.8899 32.4479 43.2636 31.8047C42.6373 31.1445 41.901 30.6452 41.0546 30.3066C40.2252 29.9512 39.3365 29.7734 38.3886 29.7734C37.4407 29.7734 36.5435 29.9512 35.6972 30.3066C34.8678 30.6452 34.1399 31.1445 33.5136 31.8047C32.9042 32.4479 32.4218 33.2266 32.0663 34.1406C31.7109 35.0378 31.5331 36.0449 31.5331 37.1621C31.5331 38.2116 31.7109 39.1849 32.0663 40.082C32.4218 40.9792 32.9042 41.7578 33.5136 42.418C34.1399 43.0781 34.8678 43.6029 35.6972 43.9922C36.5435 44.3646 37.4407 44.5508 38.3886 44.5508C39.3365 44.5508 40.2252 44.373 41.0546 44.0176C41.901 43.6621 42.6373 43.1628 43.2636 42.5195C43.8899 41.8763 44.3808 41.0977 44.7362 40.1836C45.1086 39.2695 45.2948 38.2624 45.2948 37.1621ZM85.41 37.1621C85.41 39.2949 85.0461 41.2415 84.3182 43.002C83.5903 44.7624 82.6001 46.2773 81.3475 47.5469C80.0949 48.7995 78.6222 49.7728 76.9295 50.4668C75.2537 51.1608 73.451 51.5078 71.5213 51.5078C69.6086 51.5078 67.8058 51.1523 66.1131 50.4414C64.4373 49.7305 62.9647 48.7402 61.6952 47.4707C60.4426 46.2012 59.4523 44.6947 58.7245 42.9512C57.9966 41.1908 57.6327 39.2611 57.6327 37.1621V12.9902H64.5897V25.6855C64.9621 25.2116 65.4107 24.7884 65.9354 24.416C66.4771 24.0436 67.0526 23.7389 67.662 23.502C68.2883 23.265 68.9315 23.0872 69.5916 22.9688C70.2518 22.8333 70.895 22.7656 71.5213 22.7656C73.451 22.7656 75.2537 23.1296 76.9295 23.8574C78.6222 24.5684 80.0949 25.5671 81.3475 26.8535C82.6001 28.14 83.5903 29.6634 84.3182 31.4238C85.0461 33.1673 85.41 35.0801 85.41 37.1621ZM78.4276 37.1621C78.4276 36.1126 78.2414 35.1393 77.869 34.2422C77.5135 33.3281 77.0226 32.541 76.3963 31.8809C75.77 31.2207 75.0337 30.7044 74.1873 30.332C73.3579 29.9596 72.4692 29.7734 71.5213 29.7734C70.5734 29.7734 69.6763 29.985 68.8299 30.4082C68.0005 30.8145 67.2726 31.3646 66.6463 32.0586C66.02 32.7357 65.5291 33.5228 65.1737 34.4199C64.8182 35.3001 64.6405 36.2142 64.6405 37.1621C64.6405 38.2116 64.8182 39.1849 65.1737 40.082C65.5291 40.9792 66.02 41.7578 66.6463 42.418C67.2726 43.0781 68.0005 43.6029 68.8299 43.9922C69.6763 44.3646 70.5734 44.5508 71.5213 44.5508C72.4692 44.5508 73.3579 44.3646 74.1873 43.9922C75.0337 43.6029 75.77 43.0781 76.3963 42.418C77.0226 41.7578 77.5135 40.9792 77.869 40.082C78.2414 39.1849 78.4276 38.2116 78.4276 37.1621ZM98.3318 51H91.3494V12.9902H98.3318V51ZM112.269 61.3594V54.377L116.129 54.4277C116.806 54.4277 117.457 54.3177 118.084 54.0977C118.71 53.8776 119.285 53.5729 119.81 53.1836C120.352 52.7943 120.826 52.3288 121.232 51.7871C121.638 51.2624 121.968 50.6868 122.222 50.0605C121.461 50.3822 120.682 50.7038 119.886 51.0254C119.108 51.347 118.321 51.5078 117.525 51.5078C115.849 51.5078 114.275 51.2116 112.802 50.6191C111.33 50.0267 110.035 49.1888 108.918 48.1055C107.817 47.0052 106.946 45.6764 106.302 44.1191C105.676 42.5449 105.363 40.7845 105.363 38.8379V23.8066H112.269V38.8379C112.269 39.8027 112.405 40.6491 112.675 41.377C112.963 42.0879 113.344 42.6888 113.818 43.1797C114.292 43.6536 114.842 44.0091 115.468 44.2461C116.112 44.4831 116.797 44.6016 117.525 44.6016C118.236 44.6016 118.905 44.4408 119.531 44.1191C120.174 43.7806 120.733 43.3405 121.207 42.7988C121.681 42.2572 122.053 41.6478 122.324 40.9707C122.595 40.2767 122.73 39.5658 122.73 38.8379V23.8066H129.713V47.5723C129.696 49.485 129.323 51.2793 128.595 52.9551C127.868 54.6309 126.869 56.0951 125.599 57.3477C124.347 58.6003 122.882 59.5905 121.207 60.3184C119.531 61.0462 117.737 61.4102 115.824 61.4102L112.269 61.3594Z" fill="currentColor"/>
<path d="M40.8 57.1667C40.8 60.3051 42.2961 63.3149 44.9591 65.5341C47.6221 67.7533 51.2339 69 55 69C58.7661 69 62.3779 67.7533 65.0409 65.5341C67.7039 63.3149 69.2 60.3051 69.2 57.1667L65.4055 57.1667C65.4055 59.4664 64.3092 61.672 62.3578 63.2981C60.4064 64.9243 57.7597 65.8379 55 65.8379C52.2403 65.8379 49.5936 64.9243 47.6422 63.2982C45.6908 61.672 44.5945 59.4664 44.5945 57.1667L40.8 57.1667Z" fill="currentColor"/>
<ellipse cx="42.6933" cy="57.1667" rx="1.89333" ry="1.42" fill="currentColor"/>
<ellipse cx="67.3067" cy="57.1667" rx="1.89333" ry="1.42" fill="currentColor"/>
</svg>
